/* XPM */
static char *_b03cf61f8ba452fe240611a14291532pv87wFWhNT8jfTYT[] = {
/* columns rows colors chars-per-pixel */
"32 32 6 1 ",
"  c #566A89",
". c #38002C",
"X c #8BABBF",
"o c #222A5C",
"O c black",
"+ c #37446E",
/* pixels */
"OOOOOOOOOOOOOOOOOOOOOOOOOOOOOOOO",
"O XXXXXXXXXXXXXXXXXXXXXXXXXXXX O",
"Oo XXXXXXXXXXXXXXXXXXXXXXXXXX oO",
"Ooo                          ooO",
"Oooo++++++++++++++++++++++++oooO",
"Oooo++++++++++++++++++++++++oooO",
"Oooo+++  ++++++++++++++  +++oooO",
"Oooo+++  ++++++++++++++  +++oooO",
"Oooo+++oo++++++++++++++oo+++oooO",
"Oooo++++++++++++++++++++++++oooO",
"Oooo++++++++++++++++++++++++oooO",
"Oooo++++++++++++++++++++++++oooO",
"Oooo++++++++++++++++++++++++oooO",
"Oooo++++++++++++++++++++++++oooO",
"Oooo++++++++++++++++++++++++oooO",
"Oooo++++++++++++++++++++++++oooO",
"Oooo++++++++++++++++++++++++oooO",
"Oooo++++++++++++++++++++++++oooO",
"Oooo++++++++++++++++++++++++oooO",
"Oooo++++++++++++++++++++++++oooO",
"Oooo++++++++++++++++++++++++oooO",
"Oooo++++++++++++++++++++++++oooO",
"Oooo++++++++++++++++++++++++oooO",
"Oooo+++  ++++++++++++++  +++oooO",
"Oooo+++  ++++++++++++++  +++oooO",
"Oooo+++oo++++++++++++++oo+++oooO",
"Oooo++++++++++++++++++++++++oooO",
"Oooo++++++++++++++++++++++++oooO",
"OooooooooooooooooooooooooooooooO",
"Ooo..........................ooO",
"Oo............................oO",
"OOOOOOOOOOOOOOOOOOOOOOOOOOOOOOOO"
};
