/* XPM */
static char *de186a8e27be41a3c2d4ac0b218e62favjJqfE1FEOipGG4e[] = {
/* columns rows colors chars-per-pixel */
"32 32 9 1 ",
"  c #032850",
". c #222A5C",
"X c #663B93",
"o c #0052CE",
"O c #007BD6",
"+ c #3194FF",
"@ c #42A5FF",
"# c #7BCEFF",
"$ c #D6FFFF",
/* pixels */
".......XXXXXXXXXXXXXXXXXX.......",
".....XXXXXXXXXXXXXXXXXXXXXX.....",
"....XXXXXXXXXXXXXXXXXXXXXXXX....",
"...XXXXXXXXXXXXXXXXXXXXXXXXXX...",
"..XXXXXXXXXXXXXXXXXXXXXXXXXXXX..",
".XXXXXXXXXXXXXXXXXXXXXXXXXXXXXX.",
".XXXXXXXXXXXXXXXXXXXXXXXXXXXXXX.",
"XXXXXXXXXXX          XXXXXXXXXXX",
"XXXXXXXXXX @@######@@ XXXXXXXXXX",
"XXXXXXXXXX @@######@@ XXXXXXXXXX",
"XXXXXXXX  #@########+#  XXXXXXXX",
"XXXXXXX ####++++++++@### XXXXXXX",
"XXXXXX ####@$######@+#### XXXXXX",
"XXXXXX +##@$$$$##@@@@+##+ XXXXXX",
"XXXXXX +##@$$$$##@@@@+##+ XXXXXX",
"XXXXXX #++$$$$$$@@@@@@++# XXXXXX",
"XXXXXXX ##+$$$$$@@@@@+++ XXXXXXX",
"XXXXXXXX  #OOOO+ooooO+  XXXXXXXX",
"XXXXXXXX  #OOOO+ooooO+  XXXXXXXX",
"XXXXXXXXXX #O+++oooO@ XXXXXXXXXX",
"XXXXXXXXXXX $@@+oOO@ XXXXXXXXXXX",
"XXXXXXXXXXXX $$@O@@ XXXXXXXXXXXX",
"XXXXXXXXXXXXX  #@  XXXXXXXXXXXXX",
"XXXXXXXXXXXXX  #@  XXXXXXXXXXXXX",
"XXXXXXXXXXXXXXX  XXXXXXXXXXXXXXX",
".XXXXXXXXXXXXXXXXXXXXXXXXXXXXXX.",
".XXXXXXXXXXXXXXXXXXXXXXXXXXXXXX.",
"..XXXXXXXXXXXXXXXXXXXXXXXXXXXX..",
"...XXXXXXXXXXXXXXXXXXXXXXXXXX...",
"....XXXXXXXXXXXXXXXXXXXXXXXX....",
".....XXXXXXXXXXXXXXXXXXXXXX.....",
".......XXXXXXXXXXXXXXXXXX......."
};
