/* XPM */
static char *_580455ca5534ae5e5e0d5231f8b58235Od76IdFs2HxNjiH[] = {
/* columns rows colors chars-per-pixel */
"32 32 8 1 ",
"  c black",
". c #38002C",
"X c #222A5C",
"o c #37446E",
"O c #D22F1E",
"+ c #663B93",
"@ c #566A89",
"# c #8BABBF",
/* pixels */
"                                ",
" @#############  #############@ ",
" X@############..############@X ",
" XX@@@@@@@@@@@@XX@@@@@@@@@@@@XX ",
" XXXoooooooooooXXoooooooooooXXX ",
" XXXoooooooooooXXoooooooooooXXX ",
" XXXooooooooooo..oooooooooooXXX ",
" ...XXXXXXXXXX....XXXXXXXXXX... ",
" XXXoooOOOOOOOO..ooooooOOOOO+++ ",
" XXXooOOOOOOOOoXXoooooOOOOOO++X ",
" XXXoOOOOOOOOooXXooooOOOOOOO+XX ",
" XXXOOOOOOOOoooXXoooOOOOOOOOXXX ",
" XX+OOOOOOOooooXXooOOOOOOOOoXXX ",
" X++OOOOOOoooooXXoOOOOOOOOooXXX ",
" +++OOOOOooooooXXOOOOOOOOoooXXX ",
" +++OOOOoooooooX+OOOOOOOooooXXX ",
" +++OOOoooooooo++OOOOOOoooooXXX ",
" +++OOooooooooO++OOOOOooooooXX+ ",
" +++OooooooooOO++OOOOoooooooX++ ",
" +++ooooooooOOO++OOOoooooooo+++ ",
" ++XoooooooOOOO++OOooooooooO+++ ",
" +XXooooooOOOOO++OooooooooOO+++ ",
" XXXoooooOOOOOO++ooooooooOOO+++ ",
" XXXooooOOOOOOO+XoooooooOOOO+++ ",
" XXXoooOOOOOOOOXXooooooOOOOO+++ ",
" XXXooOOOOOOOOoXXoooooOOOOOO++X ",
" XXXoOOOOOOOOooXXooooOOOOOOO+XX ",
" XXXOOOOOOOOoooXXoooOOOOOOOOXXX ",
" XX.+++++++XXXXXXXX++++++++XXXX ",
" X..XXXXXX........XXXXXXXX...XX ",
" ...XXXXX........XXXXXXXX.....X ",
"                                "
};
