/* XPM */
static char *d95c43f0ff5c472b8da9234da6fe4734bE68A7zjZDWgL4uV[] = {
/* columns rows colors chars-per-pixel */
"32 32 9 1 ",
"  c black",
". c #38002C",
"X c #222A5C",
"o c #158968",
"O c #663B93",
"+ c #566A89",
"@ c #5BECF1",
"# c #8BABBF",
"$ c #FFDBA5",
/* pixels */
"XXXXXXXOOOOOOOOOO  OOOOOOXXXXXXX",
"XXXXXOOOOOOO  OOO o OOOOOOOXXXXX",
"XXXXOOOOOOOO o    ooOOOOOOOOXXXX",
"XXXOOOOOOOOOO ooooooOOOOOOOOOXXX",
"XXOOOOOOOOOO oo$$$$ OOOOOOOOOOXX",
"XOOOOOOOOOOO o$ OO  OOOOOOOOOOOX",
"XOOOOOOOOOOOO $ OO  OOOOOOOOOOOX",
"OOOOOOOOOOOO  $$$$$ OOOOOOOOOOOO",
"OOOOOOOOOOOO##+$$$$# OOOOOOOOOOO",
"OOOOOOOOOOO ########+ OOOOOOOOOO",
"OOOOOOOOOOO #+###@@#+ OOOOOOOOOO",
"OOOOOOOOOO ++X+##@@#X OOOOOOOOOO",
"OOOOOOOO ##  X++XXXX OOOOOOOOOOO",
"OOOOOOOO ##  X++++X+ OOOOOOOOOOO",
"OOOOOOOO + OO X+++X+ OOOOOOOOOOO",
"OOOOOOO + OOO XXXXXXX OOOOOOOOOO",
"OOOOOOO + OOOO XXXX X OOOOOOOOOO",
"OOOOOOO #   OOO .. OX OOOOOOOOOO",
"OOOOOOO ### OO  ..  XX OOOOOOOOO",
"OOOOOOO ## OO ##++++XX OOOOOOOOO",
"OOOOOOOOO  O ##+++XXX OOOOOOOOOO",
"OOOOOOOOOOOO +++X  XX OOOOOOOOOO",
"OOOOOOOOOOOO +++ O XX OOOOOOOOOO",
"OOOOOOOOOOOO +++ O XX OOOOOOOOOO",
"OOOOOOOOOOOO ### OO XX OOOOOOOOO",
"XOOOOOOOOOOO ## OOO XX OOOOOOOOX",
"XOOOOOOOOOOO ++ OOO XX OOOOOOOOX",
"XXOOOOOOOOOOXXX OOO XX OOOOOOOXX",
"XXXOOOOOOOOOXX OOOOOXX OOOOOOXXX",
"XXXXOOOOOOOO.. OOOOO    OOOOXXXX",
"XXXXXOOOOOOO.. OOOOO    OOOXXXXX",
"XXXXXXXOOOOO.. OOOOO    OXXXXXXX"
};
