/* XPM */
static char *_bae60dd15ca4979869a4ea372c6a235Ze5chnlKBZfFhKqN[] = {
/* columns rows colors chars-per-pixel */
"32 32 9 1 ",
"  c black",
". c #38002C",
"X c #222A5C",
"o c #158968",
"O c #663B93",
"+ c #566A89",
"@ c #5BECF1",
"# c #8BABBF",
"$ c #FFDBA5",
/* pixels */
"XXXXXXXOOOOOO  OOOOOOOOOOXXXXXXX",
"XXXXXOOOOOOO o OOO  OOOOOOOXXXXX",
"XXXXOOOOOOOOoo    o OOOOOOOOXXXX",
"XXXOOOOOOOOOoooooo OOOOOOOOOOXXX",
"XXOOOOOOOOOO $$$$oo OOOOOOOOOOXX",
"XOOOOOOOOOOO  OO $o OOOOOOOOOOOX",
"XOOOOOOOOOOO  OO $ OOOOOOOOOOOOX",
"OOOOOOOOOOOO $$$$$  OOOOOOOOOOOO",
"OOOOOOOOOOO #$$$$+##OOOOOOOOOOOO",
"OOOOOOOOOO +######## OOOOOOOOOOO",
"OOOOOOOOOO +#@@###+# OOOOOOOOOOO",
"OOOOOOOOOO X#@@##+X++ OOOOOOOOOO",
"OOOOOOOOOOO XXXX++X  ## OOOOOOOO",
"OOOOOOOOOOO +X++++X  ## OOOOOOOO",
"OOOOOOOOOOO +X+++X OO + OOOOOOOO",
"OOOOOOOOOO XXXXXXX OOO + OOOOOOO",
"OOOOOOOOOO X XXXX OOOO + OOOOOOO",
"OOOOOOOOOO XO .. OOO   # OOOOOOO",
"OOOOOOOOO XX  ..  OO ### OOOOOOO",
"OOOOOOOOO XX++++## OO ## OOOOOOO",
"OOOOOOOOOO XXX+++## O  OOOOOOOOO",
"OOOOOOOOOO XX  X+++ OOOOOOOOOOOO",
"OOOOOOOOOO XX O +++ OOOOOOOOOOOO",
"OOOOOOOOOO XX O +++ OOOOOOOOOOOO",
"OOOOOOOOO XX OO ### OOOOOOOOOOOO",
"XOOOOOOOO XX OOO ## OOOOOOOOOOOX",
"XOOOOOOOO XX OOO ++ OOOOOOOOOOOX",
"XXOOOOOOO XX OOO XXXOOOOOOOOOOXX",
"XXXOOOOOO XXOOOOO XXOOOOOOOOOXXX",
"XXXXOOOO    OOOOO ..OOOOOOOOXXXX",
"XXXXXOOO    OOOOO ..OOOOOOOXXXXX",
"XXXXXXXO    OOOOO ..OOOOOXXXXXXX"
};
