/* XPM */
static char *result[] = {
/* columns rows colors chars-per-pixel */
"32 32 8 1 ",
"  c black",
". c #38002C",
"X c #222A5C",
"o c #158968",
"O c #663B93",
"+ c #566A89",
"@ c #8BABBF",
"# c #FFDBA5",
/* pixels */
"XXXXXXXOOOOOOO  OOOOOOOOOXXXXXXX",
"XXXXXOOOOOOOOO o OOOOOOOOOOXXXXX",
"XXXXOOOOOOOOO ooo OOOOOOOOOOXXXX",
"XXXOOOOOOOOO ooooo OOOOOOOOOOXXX",
"XXOOOOOOOOOOooooooo OOOOOOOOOOXX",
"XOOOOOOOOOOOooooooo OOOOOOOOOOOX",
"XOOOOOOOOOOO ooooo OOOOOOOOOOOOX",
"OOOOOOOOOOO  #ooo#  OOOOOOOOOOOO",
"OOOOOOOOO +@@+###+@@+ OOOOOOOOOO",
"OOOOOOOO + @@@@@@@@@ + OOOOOOOOO",
"OOOOOOOO + @+@@@@@+@ + OOOOOOOOO",
"OOOOOOO @@  @+@@@+@@ @@ OOOOOOOO",
"OOOOOOOO +  @@+X+@@+ + OOOOOOOOO",
"OOOOOOOO + OX+++++X  + OOOOOOOOO",
"OOOOOOOO + OXX+X+XX  + OOOOOOOOO",
"OOOOOOOO + O XXXXX O + OOOOOOOOO",
"OOOOOOOO + OO XXX OO + OOOOOOOOO",
"OOOOOOO @@ OO ... OO @@ OOOOOOOO",
"OOOOOOO @@ OO ... OO @@ OOOOOOOO",
"OOOOOOO @@ O +++++ O @@ OOOOOOOO",
"OOOOOOOOOOOO+++++++ OOOOOOOOOOOO",
"OOOOOOOOOOO +++++++XOOOOOOOOOOOO",
"OOOOOOOOOOO ++   +++OOOOOOOOOOOO",
"OOOOOOOOOOO ++ O +++OOOOOOOOOOOO",
"OOOOOOOOOOO ++ O +++OOOOOOOOOOOO",
"XOOOOOOOOOO +X O X++OOOOOOOOOOOX",
"XOOOOOOOOOO XX O XXXOOOOOOOOOOOX",
"XXOOOOOOOOO X OO XX OOOOOOOOOOXX",
"XXXOOOOOOOO . OO .. OOOOOOOOOXXX",
"XXXXOOOOOOO . OO .. OOOOOOOOXXXX",
"XXXXXOOOOOO . OO .. OOOOOOOXXXXX",
"XXXXXXXOOOO  OOOO   OOOOOXXXXXXX"
};
